<?xml version="1.0" encoding="UTF-8" standalone="no"?>
<!-- Created with Inkscape (http://www.inkscape.org/) -->

<svg
   xmlns:dc="http://purl.org/dc/elements/1.1/"
   xmlns:cc="http://creativecommons.org/ns#"
   xmlns:rdf="http://www.w3.org/1999/02/22-rdf-syntax-ns#"
   xmlns:svg="http://www.w3.org/2000/svg"
   xmlns="http://www.w3.org/2000/svg"
   xmlns:sodipodi="http://sodipodi.sourceforge.net/DTD/sodipodi-0.dtd"
   xmlns:inkscape="http://www.inkscape.org/namespaces/inkscape"
   width="64"
   height="64"
   viewBox="0 0 64.000002 63.999999"
   id="svg2"
   version="1.1"
   inkscape:version="0.91 r13725"
   sodipodi:docname="dnscat-logo.svg"
   inkscape:export-filename="C:\Users\Ron\Desktop\dnscat2\img\dnscat-logo.png"
   inkscape:export-xdpi="90"
   inkscape:export-ydpi="90">
  <defs
     id="defs4" />
  <sodipodi:namedview
     id="base"
     pagecolor="#ffffff"
     bordercolor="#666666"
     borderopacity="1.0"
     inkscape:pageopacity="0.0"
     inkscape:pageshadow="2"
     inkscape:zoom="5.6568543"
     inkscape:cx="67.432193"
     inkscape:cy="-1.4927901"
     inkscape:document-units="px"
     inkscape:current-layer="g3405"
     showgrid="false"
     fit-margin-top="0"
     fit-margin-left="0"
     fit-margin-right="0"
     fit-margin-bottom="0"
     inkscape:window-width="1920"
     inkscape:window-height="1011"
     inkscape:window-x="-4"
     inkscape:window-y="-4"
     inkscape:window-maximized="1"
     units="px" />
  <metadata
     id="metadata7">
    <rdf:RDF>
      <cc:Work
         rdf:about="">
        <dc:format>image/svg+xml</dc:format>
        <dc:type
           rdf:resource="http://purl.org/dc/dcmitype/StillImage" />
        <dc:title></dc:title>
      </cc:Work>
    </rdf:RDF>
  </metadata>
  <g
     inkscape:label="Layer 1"
     inkscape:groupmode="layer"
     id="layer1"
     transform="translate(-50.176175,-56.249991)">
    <g
       id="g3405">
      <g
         transform="matrix(0.64,0,0,0.81731579,50.210289,47.385178)"
         id="g3337">
        <g
           id="g3339">
          <g
             id="g3390">
            <path
               style="fill:#000000"
               inkscape:connector-curvature="0"
               d="m 43.073,11.12 c 8.088,-0.603 16.313,-0.275 24.205,1.705 1.342,0.31 2.64,0.781 3.976,1.111 2.207,0.849 4.422,1.701 6.519,2.809 4.116,2.117 7.89,4.921 11.041,8.318 6.222,6.678 9.94,15.483 11.005,24.503 0.244,1.88 0.16,3.777 0.174,5.667 0.005,11.297 -0.013,22.594 0.007,33.89 -2.68,0.059 -5.364,0.01 -8.046,0.025 -29.468,0 -58.935,0 -88.403,0 C 2.367,89.133 1.182,89.182 0,89.123 0.02,76.827 0.002,64.532 0.008,52.236 -0.05,49.54 0.392,46.859 0.977,44.236 2.667,36.851 6.243,29.835 11.57,24.409 14.351,21.54 17.594,19.132 21.103,17.224 27.844,13.55 35.464,11.76 43.073,11.12 Z m -12.971,5.286 c -0.162,0.052 -0.324,0.107 -0.473,0.192 0.86,1.971 1.656,3.97 2.511,5.941 3.365,-1.031 6.834,-1.725 10.336,-2.077 2.068,-0.25 4.149,-0.301 6.228,-0.402 -0.034,-2.145 0.006,-4.294 -0.093,-6.437 -6.255,0.073 -12.538,0.88 -18.509,2.783 z m 21.41,-2.776 c -0.04,1.074 0.024,2.15 -0.058,3.224 0.034,1.073 -0.035,2.147 0.01,3.22 1.067,0.079 2.142,0.049 3.207,0.153 4.312,0.262 8.606,0.962 12.737,2.234 0.843,-2.003 1.705,-3.999 2.509,-6.016 -5.944,-1.88 -12.18,-2.754 -18.405,-2.815 z m 20.972,3.779 c -0.846,1.965 -1.65,3.949 -2.493,5.916 0.383,0.231 0.821,0.348 1.225,0.538 4.001,1.678 7.668,4.144 10.711,7.238 1.74,-1.261 3.501,-2.494 5.233,-3.766 -0.673,-0.832 -1.473,-1.553 -2.241,-2.292 -3.609,-3.304 -7.863,-5.897 -12.435,-7.634 z m -45.712,0.198 c -5.594,2.26 -10.749,5.722 -14.706,10.3 -0.037,0.056 -0.109,0.165 -0.146,0.221 1.705,1.192 3.388,2.418 5.081,3.628 0.103,0.086 0.195,0.076 0.277,-0.027 2.718,-2.992 6.062,-5.391 9.7,-7.137 0.849,-0.415 1.728,-0.761 2.588,-1.15 -0.809,-1.963 -1.671,-3.905 -2.438,-5.882 -0.123,-0.012 -0.242,0.004 -0.356,0.047 z m 56.975,15.518 c 0.132,0.277 0.343,0.503 0.524,0.746 2.399,3.171 4.167,6.8 5.292,10.608 0.213,0.636 0.325,1.312 0.556,1.936 2.119,-0.112 4.238,-0.311 6.358,-0.417 0.058,-0.282 -0.075,-0.557 -0.123,-0.831 -1.306,-5.699 -3.8,-11.143 -7.399,-15.76 -1.737,1.238 -3.46,2.495 -5.208,3.718 z M 10.168,30.271 c -2.021,2.742 -3.65,5.769 -4.874,8.946 -1.014,2.67 -1.797,5.44 -2.206,8.269 2.134,0.142 4.266,0.282 6.396,0.451 0.121,-0.846 0.319,-1.679 0.529,-2.505 1.034,-3.994 2.746,-7.834 5.193,-11.165 0.064,-0.11 0.146,-0.21 0.203,-0.326 -1.656,-1.148 -3.285,-2.338 -4.921,-3.516 -0.103,-0.047 -0.194,-0.195 -0.32,-0.154 z m 80.539,18.793 c -0.017,0.041 -0.048,0.124 -0.063,0.166 0.149,1.188 0.313,2.381 0.273,3.581 0.011,4.754 -0.022,9.51 0.016,14.263 2.105,-0.021 4.214,-0.024 6.319,0.001 0.099,-0.405 0.028,-0.827 0.048,-1.238 0,-4.227 0,-8.453 0,-12.68 0.027,-1.497 -0.087,-2.994 -0.292,-4.477 -2.104,0.077 -4.197,0.339 -6.301,0.384 z M 2.761,50.176 c -0.021,0.303 -0.062,0.604 -0.062,0.909 0.002,5.032 0,10.064 0.001,15.097 0.006,0.297 -0.034,0.603 0.048,0.894 C 4.85,67.049 6.953,67.059 9.056,67.071 9.069,63.97 9.059,60.87 9.062,57.769 9.08,55.389 9.026,53.007 9.092,50.627 6.984,50.452 4.871,50.325 2.761,50.176 Z M 2.725,69.77 c -0.057,2.067 -0.008,4.14 -0.024,6.21 0.006,3.469 -0.013,6.938 0.01,10.407 1.933,0.024 3.866,-0.001 5.8,0.013 0.182,-0.001 0.368,0.004 0.545,-0.05 C 9.016,84.007 9.063,81.664 9.031,79.323 9.01,76.14 9.087,72.961 9.063,69.778 6.949,69.772 4.836,69.789 2.725,69.77 Z m 88.199,0.001 c -0.009,1.876 -0.023,3.754 0.016,5.632 -0.008,3.656 0.012,7.312 -0.009,10.969 2.117,0.05 4.24,0.021 6.359,0.015 0.022,-2.662 0.004,-5.324 0.01,-7.987 -0.018,-2.877 0.033,-5.756 -0.024,-8.63 -2.118,0.015 -4.235,0.011 -6.352,0.001 z"
               id="path3341" />
          </g>
        </g>
      </g>
      <path
         style="fill:#ffffff"
         id="path3361"
         d="m 103.53767,88.255175 c -3.579714,0 -6.331824,2.586285 -6.331824,6.01603 l 0,18.649715 c 0,2.00154 -0.31709,2.40642 -2.40613,2.40642 l -0.8169,0 c -0.35979,-7.881 -1.98544,-16.503209 -6.25959,-20.475596 3.04848,-1.800596 5.08729,-5.019171 5.08729,-8.702177 0,-3.690239 -2.0476,-6.914832 -5.10613,-8.71302 l -1.80083,-6.327061 -1.44167,5.06369 c -0.74909,-0.160021 -1.52644,-0.25087 -2.32577,-0.25087 -0.79932,0 -1.576665,0.09085 -2.325753,0.25087 l -1.441669,-5.06369 -1.800838,6.327061 c -3.058518,1.798188 -5.106121,5.022781 -5.106121,8.71302 0,3.683006 2.038804,6.901581 5.087287,8.702177 -4.940359,4.592028 -6.343096,15.399276 -6.343096,24.085196 l 19.57055,0 4.28985,0 0.73339,0 c 4.16677,0 6.173594,-2.02379 6.173594,-6.01602 l 0,-18.649715 c 0,-1.41678 1.08565,-2.406418 2.56436,-2.406418 1.04044,0 1.88372,-0.807949 1.88372,-1.804807 0,-0.996859 -0.84328,-1.804805 -1.88372,-1.804805 z"
         inkscape:connector-curvature="0" />
    </g>
  </g>
</svg>
